<?xml version="1.0" encoding="iso-8859-1"?>
<!-- Uploaded to: SVG Repo, www.svgrepo.com, Generator: SVG Repo Mixer Tools -->
<!DOCTYPE svg PUBLIC "-//W3C//DTD SVG 1.1//EN" "http://www.w3.org/Graphics/SVG/1.1/DTD/svg11.dtd">
<svg fill="#000000" version="1.1" id="Capa_1" xmlns="http://www.w3.org/2000/svg" xmlns:xlink="http://www.w3.org/1999/xlink" 
	 width="800px" height="800px" viewBox="0 0 400 400" xml:space="preserve">
<g>
	<g>
		<g>
			<path d="M261.543,166.668h-0.524v-27.582c0-29.719-24.179-53.898-53.896-53.898h-14.239c-29.721,0-53.899,24.18-53.899,53.898
				v27.582h-0.524c-8.687,0-15.73,7.047-15.73,15.734v100.313c0,8.689,7.044,15.734,15.73,15.734h123.086
				c8.688,0,15.73-7.045,15.73-15.734V182.402C277.273,173.715,270.229,166.668,261.543,166.668z M215.73,246.475
				c0,8.688-7.043,15.73-15.73,15.73c-8.688,0-15.73-7.043-15.73-15.73v-19.664c0-8.688,7.042-15.729,15.73-15.729
				c8.688,0,15.73,7.043,15.73,15.729V246.475z M230.219,166.668h-60.438v-27.582c0-12.737,10.362-23.098,23.1-23.098h14.239
				c12.735,0,23.099,10.36,23.099,23.098V166.668L230.219,166.668z"/>
			<path d="M352.987,328.874l1.75-2.132C384.348,290.73,400,246.902,400,200c0-47.661-16.123-92.051-46.63-128.368l-1.699-2.021
				l0.917-2.479c1.655-4.473,2.494-9.182,2.494-13.986c0-22.245-18.097-40.342-40.34-40.342c-8.121,0-15.95,2.406-22.644,6.951
				l-2.179,1.481l-2.369-1.153C260.23,6.756,230.773,0,200,0c-31.787,0-62.099,7.176-90.095,21.331l-2.526,1.276l-2.26-1.702
				c-7.035-5.3-15.419-8.104-24.247-8.104c-22.243,0-40.338,18.097-40.338,40.342c0,5.989,1.288,11.762,3.829,17.157l1.209,2.569
				l-1.777,2.215C15.145,110.766,0,153.964,0,200c0,46.902,15.652,90.73,45.262,126.742l1.75,2.132l-1.081,2.537
				c-2.128,4.999-3.208,10.311-3.208,15.787c0,22.241,18.097,40.338,40.34,40.338c8.577,0,16.771-2.665,23.7-7.705l2.224-1.616
				l2.466,1.219C139.045,393.08,168.837,400,200,400s60.955-6.92,88.546-20.566l2.466-1.219l2.226,1.616
				c6.928,5.04,15.123,7.705,23.698,7.705c22.243,0,40.342-18.097,40.342-40.338c0-5.479-1.08-10.788-3.208-15.787L352.987,328.874z
				 M335.038,307.572l-1.998,2.502l-3.028-1.035c-4.221-1.446-8.621-2.184-13.077-2.184c-22.241,0-40.34,18.098-40.34,40.343
				c0,1.385,0.073,2.788,0.214,4.171l0.328,3.184l-2.89,1.383c-23.311,11.145-48.29,16.791-74.248,16.791
				s-50.939-5.646-74.248-16.791l-2.89-1.383l0.329-3.184c0.141-1.383,0.214-2.786,0.214-4.171c0-22.245-18.097-40.343-40.34-40.343
				c-4.456,0-8.855,0.735-13.077,2.184l-3.028,1.035l-1.998-2.502C40.305,276.685,27.273,239.484,27.273,200
				c0-39.093,12.793-75.996,36.996-106.714l1.92-2.438l2.969,0.899c3.796,1.151,7.737,1.734,11.714,1.734
				c22.243,0,40.34-18.097,40.34-40.338c0-1.104-0.053-2.265-0.166-3.541l-0.267-3.089l2.778-1.378
				c23.921-11.853,49.64-17.863,76.442-17.863c25.153,0,49.433,5.323,72.166,15.818l3.04,1.402l-0.438,3.318
				c-0.239,1.821-0.361,3.614-0.361,5.332c0,22.241,18.097,40.338,40.339,40.338c5.085,0,10.059-0.945,14.785-2.808l3.115-1.23
				l2.097,2.611c24.497,30.519,37.985,68.854,37.985,107.944C372.727,239.484,359.695,276.686,335.038,307.572z"/>
		</g>
	</g>
</g>
</svg>